<svg width="512" height="512" viewBox="0 0 512 512" fill="none" xmlns="http://www.w3.org/2000/svg">
<path d="M255.368 251.89C261.719 255.755 264.756 260.725 264.756 267.903V272.045C264.756 277.015 262.823 281.432 258.958 285.298C255.092 289.163 250.951 291.096 245.705 291.096H197.94V220.138H241.839C246.809 220.138 251.227 222.071 255.092 225.936C258.958 229.802 260.89 233.943 260.89 239.189C260.89 244.435 259.234 248.576 255.921 252.166H255.645L255.368 251.89ZM206.499 249.405H242.116C244.877 249.405 247.362 248.576 249.57 246.368C251.779 244.159 252.607 241.95 252.607 238.913C252.607 235.876 251.779 233.667 249.57 231.458C247.362 229.249 245.153 228.421 242.116 228.421H206.499V249.129V249.681V249.405ZM256.197 268.179C256.197 265.418 255.368 262.934 253.16 260.725C250.951 258.516 248.466 257.688 245.705 257.688H205.946V282.537H245.705C248.466 282.537 250.951 281.708 253.16 279.5C255.368 277.291 256.197 275.082 256.197 272.045V267.903V268.456V268.179Z" fill="white"/>
<path d="M273.315 220.276H340.131V228.835H273.315V220.276ZM273.315 269.974C273.315 264.176 275.524 259.206 279.389 255.065C283.255 250.923 288.224 248.991 294.299 248.991H339.855V257.55H294.299C290.709 257.55 287.672 258.93 285.463 261.415C282.979 263.9 281.598 266.661 281.598 270.25V290.958H273.039V270.25H273.315V269.974Z" fill="white"/>
<path d="M348.414 220.138H356.973V291.096H348.414V220.138Z" fill="white"/>
<path d="M432.349 220V228.559H403.082V291.234H394.523V228.559H365.256V220H432.349Z" fill="white"/>
<path d="M176.52 266.23C173.672 270.23 168.898 273.712 162.807 276.344C155.751 284.512 140.418 290.173 122.633 290.173C119.867 290.173 117.157 290.026 114.532 289.763C120.691 291.516 127.702 292.515 135.149 292.515C157.665 292.515 176.249 283.439 179.082 271.694C179.327 270.675 179.47 269.634 179.47 268.572C179.47 266.69 179.055 264.867 178.297 263.109C177.835 264.179 177.241 265.222 176.52 266.23Z" fill="white"/>
<path d="M92.1502 247.182C92.3424 247.756 92.5619 248.333 92.8267 248.895C93.057 249.37 93.3156 249.838 93.5916 250.302C94.7569 252.238 96.3671 254.068 98.3546 255.755C99.6548 256.86 101.109 257.903 102.718 258.871C110.775 263.733 122.455 266.794 135.452 266.794C147.14 266.794 157.76 264.314 165.643 260.281C166.113 260.04 166.57 259.792 167.02 259.543C167.413 259.322 167.804 259.098 168.182 258.871C169.787 257.903 171.246 256.86 172.546 255.755C174.536 254.068 176.141 252.238 177.303 250.302C177.912 249.288 178.396 248.249 178.748 247.182C178.878 246.795 178.991 246.406 179.084 246.013C179.328 244.994 179.47 243.953 179.47 242.895C179.47 229.701 159.762 219 135.452 219C111.137 219 91.4287 229.701 91.4287 242.895C91.4287 243.065 91.4479 243.226 91.4531 243.394C83.7487 247.699 79 253.567 79 260.04C79 261.096 79.1394 262.137 79.3858 263.158C80.6503 268.424 85.0657 273.151 91.5821 276.764C92.8295 277.454 94.1528 278.104 95.5466 278.707C103.078 281.976 112.625 283.938 123.021 283.938C130.418 283.938 137.377 282.941 143.495 281.195C140.884 281.458 138.201 281.6 135.451 281.6C116.705 281.6 100.708 275.237 94.3568 266.274C93.6468 265.268 93.0566 264.227 92.5933 263.159C91.8403 261.405 91.428 259.584 91.428 257.701C91.428 256.646 91.5691 255.606 91.8137 254.587C92.2701 256.481 93.1328 258.309 94.3565 260.041C95.1214 261.118 96.0271 262.161 97.0586 263.159C104.6 270.441 118.962 275.368 135.451 275.368C145.844 275.368 155.39 273.405 162.921 270.134C164.313 269.531 165.639 268.881 166.886 268.191C169.589 266.689 171.935 265 173.84 263.159C174.873 262.161 175.774 261.119 176.54 260.041C177.765 258.309 178.63 256.481 179.084 254.587C179.327 253.564 179.469 252.525 179.469 251.469C179.469 251.077 179.451 250.687 179.415 250.302C179.32 251.361 179.089 252.399 178.747 253.418C178.114 255.324 177.062 257.149 175.646 258.871C174.752 259.954 173.716 260.998 172.546 261.987C170.939 263.353 169.084 264.621 167.019 265.777C166.459 266.09 165.886 266.393 165.299 266.689C157.452 270.623 146.971 273.026 135.451 273.026C119.86 273.026 106.173 268.628 98.3536 261.987C97.1858 260.998 96.1469 259.954 95.2538 258.871C93.8373 257.149 92.7869 255.324 92.1495 253.418C91.8099 252.398 91.5768 251.361 91.4814 250.302C91.5042 250.05 91.545 249.805 91.5814 249.553C91.5377 249.579 91.4947 249.608 91.4521 249.628C91.4468 249.462 91.4276 249.298 91.4276 249.131C91.4276 248.074 91.5688 247.036 91.8134 246.013C91.9091 246.406 92.0213 246.795 92.1502 247.182Z" fill="white"/>
</svg>
